<svg width="24" height="24" viewBox="0 0 24 24" fill="none" xmlns="http://www.w3.org/2000/svg">
<path d="M21.6 6.06001C20.88 6.36001 20.16 6.60001 19.32 6.66001C20.16 6.18001 20.76 5.40001 21.06 4.50001C20.28 4.98001 19.44 5.28001 18.54 5.46001C17.82 4.68001 16.8 4.20001 15.72 4.20001C13.56 4.20001 11.76 5.94001 11.76 8.16001C11.76 8.46001 11.82 8.76001 11.88 9.06001C8.57997 8.88001 5.69997 7.32001 3.71997 4.92001C3.35997 5.52001 3.17997 6.18001 3.17997 6.90001C3.17997 8.28001 3.89997 9.48001 4.91997 10.2C4.25997 10.2 3.65997 10.02 3.11997 9.72001V9.78001C3.11997 11.7 4.49997 13.26 6.29997 13.62C5.93997 13.68 5.63997 13.74 5.27997 13.74C5.03997 13.74 4.79997 13.74 4.55997 13.68C5.03997 15.24 6.53997 16.38 8.21997 16.44C6.89997 17.52 5.15997 18.12 3.29997 18.12C2.99997 18.12 2.63997 18.12 2.33997 18.06C4.13997 19.14 6.23997 19.8 8.45997 19.8C15.72 19.8 19.68 13.8 19.68 8.58001C19.68 8.40001 19.68 8.22001 19.68 8.10001C20.4 7.50001 21.06 6.84001 21.6 6.06001Z" fill="#2EBAE8"/>
</svg>
