<svg width="45" height="36" viewBox="0 0 45 36" fill="none" xmlns="http://www.w3.org/2000/svg">
<path fill-rule="evenodd" clip-rule="evenodd" d="M44.1244 22.8718C44.1244 29.7748 36.7348 35.6404 22.1764 35.6404H21.9478C7.3976 35.6404 0 29.7701 0 22.8718C0 15.9689 14.4277 6.0238 14.4277 6.0238C14.4277 6.0238 20.7639 2.11647 21.9397 0H22.1683C23.3277 2.11647 29.6802 6.0238 29.6802 6.0238C29.6802 6.0238 44.1244 15.9689 44.1244 22.8718ZM31.8685 24.5975C31.8685 27.5606 28.5861 30.0771 22.1275 30.0771H22.0214C15.5628 30.0771 12.2804 27.5606 12.2804 24.5975C12.2804 21.6391 18.69 17.369 18.69 17.369C18.69 17.369 21.5641 15.5874 22.0214 14.5827H22.1275C22.5848 15.5828 25.4589 17.369 25.4589 17.369C25.4589 17.369 31.8685 21.6345 31.8685 24.5975Z" fill="#171A1F"/>
</svg>
